<?xml version="1.0" encoding="iso-8859-1"?>
<!-- Generator: Adobe Illustrator 19.0.0, SVG Export Plug-In . SVG Version: 6.00 Build 0)  -->
<svg version="1.1" id="Layer_1" xmlns="http://www.w3.org/2000/svg" xmlns:xlink="http://www.w3.org/1999/xlink" x="0px" y="0px"
	 viewBox="0 0 512 512" style="enable-background:new 0 0 512 512;" xml:space="preserve">
<g style="enable-background:new    ;">
	<path style="fill:#FF5023;" d="M256.114,285.288l-48.573-28.043c-2.559-1.478-2.602-3.863-0.03-5.415
		c0.983-0.572,2.198-0.926,3.557-1.065c0.329-0.013,0.657-0.03,1.207-0.068c4.651-0.343,9.146-1.538,12.797-3.639
		c8.588-4.99,8.542-13.083-0.104-18.076c-8.645-4.99-22.616-4.99-31.278,0.044c-3.534,2.073-5.583,4.673-6.192,7.507
		c-0.038,0.192-0.068,0.382-0.1,0.619c-0.224,0.741-0.832,1.446-1.906,2.069c-2.579,1.443-6.699,1.426-9.258-0.052l-48.757-27.936
		l-48.072,27.937c-2.573,1.495-6.76,1.495-9.351-0.001c-0.987-0.571-1.604-1.275-1.848-2.063c-0.025-0.192-0.057-0.382-0.124-0.701
		c-0.608-2.713-2.712-5.338-6.322-7.423c-8.645-4.99-22.616-4.99-31.206,0.001c-4.288,2.492-6.423,5.757-6.411,9.025
		c0,0,0-0.006,0-0.009c0-0.016-0.001-0.026-0.001-0.042l-0.044,15.376c-0.009,3.291,2.163,6.589,6.513,9.1
		c1.522,0.88,3.212,1.601,5.025,2.171l12.663-7.359L0.044,285.289l0,0L0,300.664l48.572,28.043c2.589,1.495,6.776,1.495,9.348,0
		c0.983-0.572,1.587-1.277,1.824-2.063c0.023-0.192,0.053-0.382,0.118-0.719c0.582-2.707,2.658-5.326,6.236-7.404
		c8.59-4.993,22.562-4.993,31.206-0.001c0.763,0.441,1.456,0.907,2.085,1.392c-0.595,0.453-1.226,0.895-1.938,1.31
		c-3.584,2.084-8.111,3.293-13.012,3.653c-0.331,0.022-0.66,0.041-1.068,0.06c-1.281,0.134-2.494,0.487-3.477,1.059
		c-1.282,0.745-1.921,1.721-1.919,2.698c0-0.003-0.001-0.006-0.001-0.006l-0.044,15.372c-0.003,0.986,0.648,1.974,1.951,2.726
		l48.573,28.043l48.256-28.043c1.278-0.743,1.917-1.715,1.921-2.689l0.044-15.376c0,0.061-0.01,0.12-0.016,0.181
		c0.088-1.045-0.553-2.109-1.935-2.907c-0.99-0.572-2.211-0.925-3.568-1.065c-0.329-0.013-0.658-0.03-1.239-0.07
		c-4.678-0.348-9.204-1.557-12.806-3.637c-0.769-0.444-1.446-0.921-2.079-1.41c0.588-0.448,1.229-0.881,1.934-1.29
		c8.59-4.993,22.562-4.993,31.206-0.001c2.969,1.714,4.916,3.794,5.87,6.058l0.588,2.112c0.232,0.741,0.848,1.446,1.838,2.018
		c2.589,1.495,6.776,1.495,9.348,0l48.256-28.043L256.114,285.288"/>
	<path style="fill:#FF9911;" d="M352.935,249.462c-7.179-2.898-9.979-3.429-12.836-3.637c-0.553-0.039-0.882-0.057-1.21-0.07
		c-1.359-0.139-2.579-0.493-3.568-1.065c-2.589-1.495-2.603-3.919-0.03-5.415l48.256-28.043l-35.916-20.735
		c1.73-0.561,3.359-1.265,4.83-2.12c4.266-2.48,6.402-5.724,6.411-8.974l0.044-15.375c0,0.009-0.003,0.016-0.003,0.024
		c-0.001,0.109-0.023,0.217-0.028,0.326c0.17-3.407-1.978-6.85-6.484-9.452c-8.645-4.99-22.616-4.99-31.204,0
		c-3.58,2.08-5.654,4.697-6.266,7.551c-0.036,0.19-0.065,0.381-0.1,0.619c-0.224,0.741-0.832,1.446-1.813,2.017
		c-2.575,1.496-6.762,1.496-9.351,0.001l-48.573-28.043l-48.256,28.043c-1.284,0.746-1.924,1.725-1.92,2.703
		c0-0.005,0-0.009,0-0.015l-0.044,15.376c-0.003,0.986,0.648,1.974,1.951,2.726c0.99,0.572,2.209,0.924,3.566,1.064
		c0.331,0.014,0.66,0.032,1.241,0.071c4.676,0.347,9.204,1.557,12.804,3.636c0.763,0.441,1.456,0.907,2.085,1.392
		c-0.594,0.453-1.225,0.894-1.936,1.309c-8.59,4.993-22.563,4.993-31.208,0c-3.608-2.083-5.711-4.708-6.349-7.549
		c-0.04-0.192-0.072-0.382-0.107-0.619c-0.234-0.743-0.848-1.446-1.838-2.018c-2.589-1.494-6.776-1.494-9.348,0l-48.072,27.937
		l48.572,28.043c2.559,1.478,6.678,1.494,9.258,0.052c0.929-0.561,1.506-1.244,1.734-2.008c0.021-0.19,0.05-0.381,0.116-0.718
		c0.585-2.709,2.658-5.326,6.423-7.513c8.588-4.99,22.56-4.99,31.204,0c8.647,4.993,8.693,13.085-0.08,18.182
		c-3.587,2.085-8.113,3.295-13.015,3.654c-0.331,0.022-0.66,0.041-1.068,0.06c-1.238,0.127-2.416,0.464-3.382,1.004
		c-2.483,1.498-2.44,3.885,0.119,5.362l48.573,28.043l48.072-27.937c2.573-1.494,6.76-1.494,9.348,0
		c0.99,0.572,1.606,1.277,1.838,2.018c0.034,0.236,0.067,0.427,0.107,0.619c0.136,0.602,0.283,1.057,0.472,1.509
		c1.005,2.055,2.258,3.512,4.009,4.817c10.513,6.215,24.485,6.215,33.076,1.223C361.625,262.546,361.579,254.452,352.935,249.462z"
		/>
	<path style="fill:#943EC7;" d="M255.929,285.394l-0.044,15.375l48.573,28.043c2.589,1.495,6.776,1.495,9.348,0
		c0.983-0.572,1.591-1.277,1.828-2.064c0.021-0.19,0.05-0.381,0.116-0.701c0.578-2.713,2.652-5.338,6.238-7.423
		c8.588-4.99,22.56-4.99,31.206,0.001c0.763,0.44,1.453,0.906,2.083,1.39c-0.594,0.453-1.225,0.895-1.937,1.309
		c-3.58,2.08-8.091,3.29-13.015,3.654c-0.331,0.022-0.66,0.041-1.068,0.06c-1.277,0.134-2.494,0.487-3.477,1.059
		c-1.282,0.745-1.921,1.721-1.92,2.698c0-0.003-0.001-0.006-0.001-0.006l-0.044,15.372c-0.003,0.986,0.648,1.974,1.951,2.726
		l48.572,28.043l48.256-28.043c2.573-1.495,6.758-1.495,9.351,0.001c0.987,0.571,1.604,1.275,1.848,2.063
		c0.025,0.192,0.057,0.382,0.129,0.718c0.613,2.707,2.714,5.326,6.316,7.406c8.645,4.991,22.616,4.991,31.206-0.001
		c4.266-2.48,6.402-5.724,6.412-8.974l0.044-15.375c-0.001,0.202-0.034,0.403-0.051,0.605c0.295-3.49-1.844-7.041-6.462-9.706
		c-1.618-0.934-3.429-1.683-5.37-2.268c0.114,0.034,0.233,0.062,0.346,0.097l35.593-20.684l0.044-15.376l0,0l-35.915-20.735
		c1.73-0.561,3.358-1.266,4.829-2.12c4.266-2.48,6.402-5.724,6.412-8.975l0.044-15.375c0,0.141-0.006,0.25-0.015,0.345
		c-0.005,0.11-0.031,0.218-0.042,0.327c0.327-3.512-1.811-7.09-6.456-9.772c-8.647-4.993-22.618-4.993-31.206-0.001
		c-3.587,2.085-5.66,4.709-6.266,7.551c-0.034,0.19-0.065,0.381-0.099,0.619c-0.224,0.741-0.832,1.446-1.813,2.017
		c-2.575,1.496-6.762,1.496-9.351,0.001l-48.573-28.043l-48.255,28.045c-2.573,1.495-2.559,3.919,0.03,5.415
		c0.99,0.572,2.209,0.926,3.568,1.066c0.329,0.013,0.658,0.03,1.21,0.069c2.857,0.208,5.657,0.74,12.836,3.637
		c8.645,4.99,8.689,13.083,0.101,18.075c-8.59,4.993-22.562,4.993-33.076-1.223c-1.751-1.305-3.005-2.762-4.009-4.817
		c-0.189-0.451-0.336-0.907-0.472-1.509c-0.04-0.192-0.072-0.382-0.107-0.619c-0.232-0.741-0.848-1.446-1.838-2.018
		c-2.589-1.494-6.776-1.494-9.348,0L255.929,285.394"/>
	<g>
		<path style="fill:#A258CB;" d="M480.855,229.088c8.645,4.99,8.689,13.083,0.101,18.075c-3.58,2.08-8.091,3.29-12.764,3.636
			c-0.581,0.039-0.909,0.057-1.24,0.071c-1.358,0.139-2.574,0.493-3.554,1.064c-2.575,1.496-2.561,3.922,0.028,5.416L512,285.393
			l-48.256,28.043c-2.573,1.495-2.559,3.919,0.032,5.416c0.987,0.571,2.209,0.924,3.487,1.056c0.411,0.021,0.74,0.039,1.069,0.06
			c4.909,0.358,9.446,1.569,13.056,3.654c8.645,4.991,8.689,13.083,0.101,18.075c-8.59,4.993-22.562,4.993-31.206,0.001
			c-3.603-2.08-5.704-4.699-6.318-7.406c-0.071-0.335-0.103-0.526-0.129-0.718c-0.245-0.787-0.861-1.492-1.848-2.063
			c-2.591-1.496-6.778-1.496-9.351-0.001l-48.256,28.043l-48.573-28.043c-2.589-1.495-2.603-3.919-0.03-5.415
			c0.983-0.572,2.201-0.925,3.477-1.058c0.408-0.02,0.737-0.038,1.068-0.06c4.925-0.365,9.436-1.574,13.015-3.654
			c8.588-4.99,8.542-13.083-0.101-18.075c-8.647-4.992-22.618-4.992-31.206-0.001c-3.587,2.085-5.66,4.709-6.238,7.423
			c-0.066,0.32-0.095,0.51-0.116,0.701c-0.236,0.787-0.844,1.492-1.828,2.064c-2.573,1.495-6.76,1.495-9.348,0l-48.573-28.043
			l48.256-28.043c2.573-1.495,6.76-1.495,9.348,0c0.99,0.572,1.606,1.277,1.838,2.018c0.034,0.236,0.067,0.427,0.107,0.619
			c0.136,0.602,0.283,1.057,0.472,1.509c1.005,2.055,2.258,3.512,4.009,4.817c10.513,6.215,24.485,6.215,33.076,1.223
			c8.588-4.99,8.542-13.083-0.101-18.075c-7.179-2.899-9.979-3.429-12.836-3.637c-0.553-0.039-0.881-0.057-1.21-0.07
			c-1.359-0.139-2.579-0.493-3.568-1.065c-2.589-1.495-2.603-3.919-0.03-5.415l48.256-28.043l48.573,28.043
			c2.589,1.495,6.776,1.495,9.351-0.001c0.981-0.571,1.589-1.275,1.813-2.017c0.034-0.238,0.065-0.428,0.099-0.619
			c0.606-2.841,2.679-5.466,6.266-7.551C458.237,224.097,472.209,224.097,480.855,229.088z"/>
		<path style="fill:#7F33AD;" d="M480.958,247.163c-3.58,2.08-8.091,3.29-12.764,3.636c-0.581,0.039-0.909,0.057-1.24,0.071
			c-1.358,0.139-2.574,0.493-3.554,1.064c-2.575,1.496-2.561,3.922,0.028,5.416l12.658,7.308c1.73-0.561,3.358-1.266,4.829-2.12
			c4.266-2.48,6.402-5.724,6.412-8.974l0.044-15.375c0,0.141-0.006,0.25-0.015,0.345C487.2,241.667,485.073,244.771,480.958,247.163
			z"/>
		<g>
			<path style="fill:#A258CB;" d="M512,285.393L512,285.393L512,285.393z"/>
			<path style="fill:#7F33AD;" d="M463.743,313.438c-2.573,1.495-2.559,3.919,0.032,5.416c0.987,0.571,2.209,0.924,3.487,1.056
				c0.411,0.021,0.74,0.039,1.069,0.06c2.838,0.207,5.551,0.701,8.032,1.483l35.593-20.684L512,285.393L463.743,313.438z"/>
		</g>
		<path style="fill:#7F33AD;" d="M353.194,318.627c0.767,0.443,1.463,0.911,2.094,1.398c2.758-2.103,4.239-4.589,4.439-7.106
			l0.001-1.108c-0.216-3.11-2.378-6.186-6.491-8.56c-8.647-4.992-22.618-4.992-31.206-0.001c-3.587,2.085-5.66,4.709-6.238,7.423
			c-0.066,0.32-0.095,0.51-0.116,0.701l-0.044,15.375c0.021-0.19,0.05-0.381,0.116-0.701c0.578-2.713,2.652-5.338,6.238-7.423
			C330.576,313.635,344.548,313.635,353.194,318.627z"/>
		<path style="fill:#943EC7;" d="M313.849,313.438c-2.573,1.495-6.76,1.495-9.348,0l-48.573-28.043l-0.044,15.375l48.573,28.043
			c2.589,1.495,6.776,1.495,9.348,0c0.983-0.572,1.591-1.277,1.828-2.064l0.044-15.375
			C315.442,312.162,314.834,312.866,313.849,313.438z"/>
		<path style="fill:#7F33AD;" d="M481.49,341.699c-8.59,4.993-22.563,4.993-31.206,0.001c-3.603-2.08-5.704-4.699-6.316-7.406
			c-0.071-0.335-0.103-0.526-0.129-0.718c-0.245-0.787-0.861-1.492-1.848-2.063c-2.591-1.496-6.778-1.496-9.351-0.001l0,0
			l-48.256,28.043l-0.044,15.375l48.257-28.043l0,0c2.573-1.495,6.758-1.495,9.351,0.001c0.987,0.571,1.604,1.275,1.848,2.063
			c0.025,0.192,0.057,0.382,0.129,0.718c0.613,2.707,2.714,5.326,6.316,7.406c8.645,4.991,22.616,4.991,31.206-0.001
			c4.266-2.48,6.402-5.724,6.412-8.974l0.044-15.375C487.892,335.974,485.756,339.22,481.49,341.699z"/>
		<path style="fill:#943EC7;" d="M335.809,331.514c-1.303-0.752-1.954-1.74-1.951-2.726l-0.044,15.375
			c-0.003,0.986,0.648,1.974,1.951,2.726l48.572,28.043l0.044-15.375L335.809,331.514z"/>
	</g>
	<g>
		<path style="fill:#FF5023;" d="M57.964,313.332c-2.573,1.495-6.76,1.495-9.348,0L0.044,285.289L0,300.665l48.572,28.043
			c2.589,1.495,6.776,1.495,9.348,0c0.983-0.572,1.587-1.277,1.824-2.063l0.044-15.375
			C59.551,312.055,58.948,312.761,57.964,313.332z"/>
		<path style="fill:#FF3502;" d="M176.753,331.407l-48.256,28.043l-0.044,15.375l48.256-28.043c1.278-0.743,1.917-1.715,1.921-2.689
			l0.044-15.375C178.67,329.692,178.031,330.665,176.753,331.407z"/>
		<path style="fill:#FF5023;" d="M79.924,331.408c-1.303-0.752-1.954-1.74-1.951-2.726l-0.044,15.375
			c-0.003,0.986,0.648,1.974,1.951,2.726l48.573,28.043l0.044-15.375L79.924,331.408z"/>
		<path style="fill:#FF6342;" d="M224.967,228.982c8.647,4.993,8.692,13.085,0.104,18.076c-3.651,2.101-8.145,3.297-12.797,3.639
			c-0.55,0.038-0.879,0.055-1.207,0.068c-1.358,0.139-2.574,0.493-3.557,1.065c-2.572,1.552-2.529,3.937,0.03,5.415l48.573,28.043
			l-48.256,28.043c-2.573,1.495-6.76,1.495-9.348,0c-0.99-0.572-1.606-1.277-1.838-2.018c-0.034-0.236-0.067-0.427-0.107-0.619
			c-0.637-2.841-2.741-5.466-6.351-7.551c-8.645-4.991-22.616-4.991-31.206,0.001c-8.588,4.991-8.542,13.083,0.101,18.075
			c3.603,2.08,8.128,3.29,12.806,3.637c0.581,0.039,0.91,0.057,1.239,0.069c1.357,0.14,2.579,0.493,3.568,1.065
			c2.589,1.495,2.603,3.921,0.03,5.415l-48.256,28.043l-48.573-28.043c-2.589-1.495-2.603-3.919-0.03-5.415
			c0.983-0.572,2.196-0.925,3.477-1.058c0.409-0.02,0.737-0.038,1.068-0.06c4.903-0.361,9.428-1.57,13.012-3.653
			c8.59-4.993,8.545-13.085-0.101-18.077c-8.645-4.99-22.616-4.99-31.206,0.001c-3.578,2.079-5.654,4.697-6.236,7.404
			c-0.066,0.336-0.095,0.527-0.118,0.719c-0.238,0.786-0.841,1.491-1.824,2.063c-2.573,1.495-6.76,1.495-9.348,0L0.044,285.289
			L48.3,257.246c2.573-1.495,2.559-3.921-0.032-5.416c-0.987-0.571-2.209-0.924-3.487-1.056c-0.411-0.021-0.74-0.039-1.069-0.06
			c-4.928-0.365-9.453-1.574-13.056-3.654c-8.645-4.991-8.689-13.083-0.101-18.075c8.59-4.993,22.562-4.993,31.206-0.001
			c3.61,2.085,5.714,4.709,6.322,7.423c0.067,0.319,0.099,0.509,0.124,0.701c0.245,0.787,0.861,1.492,1.848,2.063
			c2.591,1.496,6.778,1.496,9.351,0.001l48.072-27.937l48.757,27.936c2.559,1.478,6.678,1.494,9.258,0.051
			c1.074-0.623,1.682-1.328,1.906-2.069c0.032-0.236,0.063-0.427,0.1-0.619c0.609-2.835,2.658-5.434,6.192-7.507
			C202.351,223.991,216.324,223.99,224.967,228.982z"/>
		<path style="fill:#FF3502;" d="M97.306,318.52c0.768,0.443,1.464,0.912,2.096,1.4c2.984-2.277,4.474-5.002,4.462-7.728
			c0-0.005,0-0.011,0-0.011c-0.022-3.274-2.195-6.541-6.514-9.035c-8.645-4.99-22.616-4.99-31.206,0.001
			c-3.578,2.079-5.654,4.697-6.236,7.405c-0.066,0.336-0.095,0.527-0.118,0.719l-0.044,15.375c0.023-0.192,0.053-0.382,0.118-0.719
			c0.582-2.707,2.658-5.326,6.236-7.405C74.69,313.53,88.662,313.53,97.306,318.52z"/>
		<path style="fill:#FF5023;" d="M30.612,262.434c1.522,0.879,3.212,1.601,5.025,2.171l12.663-7.359
			c1.177-0.683,1.806-1.562,1.901-2.458l0.001-0.459c-0.091-0.91-0.73-1.806-1.934-2.5c-0.987-0.571-2.209-0.924-3.487-1.056
			c-0.411-0.021-0.74-0.039-1.069-0.06c-4.928-0.365-9.453-1.574-13.056-3.654c-4.179-2.413-6.342-5.551-6.497-8.712
			c-0.007-0.079-0.011-0.172-0.014-0.28c0-0.022-0.001-0.044-0.001-0.066c0-0.015-0.001-0.026-0.001-0.042l-0.044,15.375
			C24.089,256.625,26.262,259.922,30.612,262.434z"/>
		<path style="fill:#FF3502;" d="M207.857,313.331c-2.573,1.495-6.76,1.495-9.349,0c-0.99-0.572-1.606-1.277-1.838-2.018
			l-0.019,0.025v-0.141c-0.028-0.182-0.055-0.345-0.089-0.503c-0.637-2.841-2.741-5.466-6.351-7.551
			c-8.645-4.991-22.616-4.991-31.206,0.001c-7.826,4.548-8.479,11.671-1.993,16.676c0.592-0.452,1.238-0.888,1.949-1.301
			c8.59-4.993,22.562-4.993,31.206-0.001c2.969,1.714,4.916,3.794,5.87,6.058l0.588,2.112c0.232,0.741,0.848,1.446,1.838,2.018
			c2.589,1.495,6.776,1.495,9.349,0l48.256-28.043l0.044-15.375L207.857,313.331z"/>
	</g>
	<g>
		<path style="fill:#F18700;" d="M352.505,173.001c-3.587,2.085-8.113,3.295-12.794,3.637c-0.55,0.038-0.879,0.055-1.21,0.07
			c-1.358,0.139-2.573,0.493-3.554,1.064c-2.575,1.496-2.561,3.922,0.028,5.416l12.657,7.307c1.73-0.561,3.359-1.265,4.83-2.12
			c4.266-2.48,6.402-5.724,6.411-8.974l0.044-15.375c0,0.009-0.003,0.016-0.003,0.024
			C358.892,167.293,356.76,170.528,352.505,173.001z"/>
		<path style="fill:#FF9911;" d="M206.825,185.903c0.99,0.572,2.209,0.924,3.566,1.064c0.331,0.014,0.66,0.032,1.241,0.071
			c4.676,0.346,9.204,1.557,12.804,3.636c0.768,0.443,1.464,0.912,2.096,1.4c2.882-2.199,4.365-4.814,4.452-7.447l0.001-0.487
			c-0.103-3.206-2.27-6.396-6.506-8.842c-3.601-2.079-8.128-3.29-12.804-3.636c-0.581-0.039-0.91-0.057-1.241-0.071
			c-1.357-0.14-2.577-0.492-3.566-1.064c-1.237-0.715-1.88-1.642-1.939-2.578c-0.006-0.023-0.01-0.064-0.01-0.124
			c0-0.003,0-0.006,0-0.009c0-0.005,0-0.009,0-0.015l-0.044,15.375C204.871,184.163,205.522,185.151,206.825,185.903z"/>
		<path style="fill:#FFA834;" d="M256.114,285.288l48.072-27.937c2.573-1.495,6.76-1.495,9.348,0
			c0.99,0.572,1.606,1.277,1.838,2.018c0.036,0.236,0.067,0.427,0.107,0.619c0.136,0.602,0.283,1.057,0.472,1.509
			c1.005,2.055,2.258,3.512,4.009,4.817c10.513,6.215,24.485,6.215,33.076,1.223c8.588-4.99,8.542-13.083-0.101-18.075
			c-7.179-2.899-9.979-3.429-12.836-3.637c-0.553-0.039-0.882-0.057-1.21-0.07c-1.359-0.139-2.579-0.493-3.568-1.065
			c-2.589-1.495-2.603-3.921-0.03-5.415l48.256-28.043l-48.573-28.043c-2.589-1.495-2.603-3.919-0.028-5.416
			c0.981-0.571,2.196-0.925,3.554-1.064c0.331-0.014,0.66-0.032,1.21-0.07c4.681-0.344,9.208-1.554,12.794-3.637
			c8.588-4.99,8.542-13.083-0.105-18.076c-8.645-4.99-22.616-4.99-31.204,0c-3.58,2.08-5.654,4.697-6.266,7.551
			c-0.034,0.19-0.065,0.381-0.1,0.619c-0.224,0.741-0.832,1.446-1.813,2.017c-2.575,1.496-6.762,1.496-9.351,0.001l-48.573-28.043
			l-48.256,28.043c-2.573,1.495-2.559,3.919,0.03,5.415c0.99,0.572,2.209,0.924,3.566,1.064c0.331,0.014,0.66,0.032,1.241,0.071
			c4.676,0.346,9.204,1.557,12.804,3.636c8.647,4.992,8.692,13.085,0.104,18.076c-8.59,4.993-22.563,4.993-31.208,0
			c-3.608-2.084-5.711-4.708-6.349-7.549c-0.04-0.192-0.072-0.382-0.107-0.619c-0.234-0.743-0.848-1.446-1.838-2.018
			c-2.589-1.495-6.776-1.495-9.348,0l-48.072,27.937l48.573,28.043c2.559,1.478,6.678,1.494,9.258,0.051
			c0.929-0.561,1.506-1.244,1.734-2.008c0.021-0.19,0.05-0.381,0.116-0.718c0.585-2.708,2.658-5.326,6.423-7.513
			c8.588-4.99,22.56-4.99,31.204,0c8.647,4.993,8.692,13.085-0.08,18.182c-3.587,2.085-8.113,3.295-13.015,3.654
			c-0.331,0.022-0.66,0.041-1.068,0.06c-1.238,0.127-2.416,0.464-3.382,1.004c-2.483,1.498-2.44,3.885,0.119,5.362L256.114,285.288
			L256.114,285.288z"/>
	</g>
</g>
<g>
</g>
<g>
</g>
<g>
</g>
<g>
</g>
<g>
</g>
<g>
</g>
<g>
</g>
<g>
</g>
<g>
</g>
<g>
</g>
<g>
</g>
<g>
</g>
<g>
</g>
<g>
</g>
<g>
</g>
</svg>
